# xmcd CD database file
#
# Track frame offsets:
#	182
#	46275
#	85950
#	118875
#	201075
#	233175
#
# Disc length: 3810 seconds
#
# Revision: 0
# Processed by: cddbd v1.5.1PL0 Copyright (c) Steve Scherf et al.
# Submitted via: CDex 1.51
#
DISCID=4d0ee006
DTITLE=Thelenious Monk - April in Paris
DYEAR=1965
DGENRE=Jazz
TTITLE0=Jackie-Ing
TTITLE1=Ruby my Dear
TTITLE2=Evidence
TTITLE3=I'm getting Sentimental over You
TTITLE4=April in Paris
TTITLE5=Straight, no Chaser
EXTD=YEAR: 1965
EXTT0=
EXTT1=
EXTT2=
EXTT3=
EXTT4=
EXTT5=
PLAYORDER=
